HIERARCHY
ROOT pelvis
{
  OFFSET 0 100 0
  CHANNELS 6 Xposition Yposition Zposition Zrotation Xrotation Yrotation
  JOINT pelvis_right_femur
  {
    OFFSET -10.78128 -3.44521 -0.5502486
    CHANNELS 3 Zrotation Xrotation Yrotation
    JOINT right_femur_tibia
    {
      OFFSET -0.8047443 -44.0398 -0.1307829
      CHANNELS 3 Zrotation Xrotation Yrotation
      JOINT right_tibia_foot
      {
        OFFSET 3.006224 -47.83518 -5
        CHANNELS 3 Zrotation Xrotation Yrotation
        End Site
        {
          OFFSET 0 -5 15
        }
      }
    }
  }
  JOINT pelvis_left_femur
  {
    OFFSET 10.78128 -3.44521 -0.5502486
    CHANNELS 3 Zrotation Xrotation Yrotation
    JOINT left_femur_tibia
    {
      OFFSET 0.8047443 -44.0398 -0.1307829
      CHANNELS 3 Zrotation Xrotation Yrotation
      JOINT left_tibia_foot
      {
        OFFSET -4.370144 -48.10324 -4.275266
        CHANNELS 3 Zrotation Xrotation Yrotation
        End Site
        {
          OFFSET 0 -5 15
        }
      }
    }
  }
  JOINT pelvis_spine1
  {
    OFFSET 0 6.468898 -3.129235
    CHANNELS 3 Zrotation Xrotation Yrotation
    JOINT spine1
    {
      OFFSET 0 23.15396 4.99043
      CHANNELS 3 Zrotation Xrotation Yrotation
      JOINT spine2
      {
        OFFSET 0 20.79997 -5.064912
        CHANNELS 3 Zrotation Xrotation Yrotation
        JOINT neck
        {
          OFFSET 0 14.38658 9.616178
          CHANNELS 3 Zrotation Xrotation Yrotation
          End Site
          {
            OFFSET 0 20 0
          }
        }
      }
      JOINT right_manubrium
      {
        OFFSET -5.722621 16.35077 3.967754
        CHANNELS 3 Zrotation Xrotation Yrotation
        JOINT right_clavicle
        {
          OFFSET -13.16364 1.694482 -4.693211
          CHANNELS 3 Zrotation Xrotation Yrotation
          JOINT right_humerus
          {
            OFFSET -28.5034 -0.3100689 -2.792744
            CHANNELS 3 Zrotation Xrotation Yrotation
            JOINT right_radius
            {
              OFFSET -25.15693 0.02248979 -1.271978
              CHANNELS 3 Zrotation Xrotation Yrotation
              End Site
              {
                OFFSET -15 0 0
              }
            }
          }
        }
      }
      JOINT left_manubrium
      {
        OFFSET 5.722621 16.35077 3.967754
        CHANNELS 3 Zrotation Xrotation Yrotation
        JOINT left_clavicle
        {
          OFFSET 13.16364 1.694482 -4.693211
          CHANNELS 3 Zrotation Xrotation Yrotation
          JOINT left_humerus
          {
            OFFSET 29.39168 -1.063119 -2.237045
            CHANNELS 3 Zrotation Xrotation Yrotation
            JOINT left_radius
            {
              OFFSET 24.59957 -0.9528479 0.9047498
              CHANNELS 3 Zrotation Xrotation Yrotation
              End Site
              {
                OFFSET 15 -0 -0
              }
            }
          }
        }
      }
    }
  }
}
MOTION
Frames: 9
Frame Time: 0.0416666666667
-236.3776 102.8936 3058.388 -2.780879 -8.878438 -17.80595 6.552455 1.632754 3.383384 -0 13.09852 -0 -6.916867 -3.885363 -4.042263 -0.988516 -8.727744 -4.707899 -0 56.53564 -0 -3.751966 -4.617227 18.20254 1.428837 -3.898811 6.055183 0.3127403 17.38527 -6.748236 1.635104 20.85329 2.833827 0.785696 -20.1107 5.235352 -2.700935 -27.43126 13.13877 92.85398 14.85286 -15.65088 -0 0 19.50027 -25.77176 15.78926 14.80182 3.196825 -24.74926 -8.44859 -92.45714 12.99814 29.16251 0 0 -13.49766 8.341708 17.13745 2.914463
-238.0294 103.1585 3063.719 -2.846857 -8.707046 -18.82671 6.303084 5.840061 3.365166 -0 11.01724 -0 -6.208601 -7.592857 -3.422469 0.2695484 -14.97589 -3.802171 -0 49.70256 -0 -3.679511 -4.85803 18.88596 1.554486 -3.879232 6.598564 0.2583765 17.34086 -6.477979 1.755775 20.31261 2.180079 0.1529131 -20.12753 5.106761 -2.998538 -28.95591 12.9293 91.96395 15.06996 -13.44411 -0 0 22.57129 -25.51327 16.54961 15.56084 2.610694 -23.69124 -8.069697 -93.10472 12.60881 31.75892 0 0 -11.87312 7.183712 16.3752 4.407869
-239.5717 102.7906 3069.094 -2.852501 -8.319801 -19.77187 5.861462 9.69875 3.085686 -0 9.365597 -0 -5.515704 -11.14466 -2.840452 1.398445 -19.67177 -3.099838 -0 40.76293 -0 -3.712865 -5.389769 19.19871 1.64149 -3.859836 7.139281 0.2269857 17.16649 -6.199596 1.881514 19.77837 1.520657 -0.5120459 -20.13368 5.008272 -3.307171 -30.44279 12.67248 90.93693 15.29254 -11.13165 -0 0 25.71578 -25.14024 17.29116 16.24393 2.059638 -22.59569 -7.592544 -93.63079 12.20156 34.13711 0 0 -10.43 6.21719 15.59297 5.682882
-241.0615 101.9482 3074.671 -2.713213 -7.731709 -20.58488 5.220581 13.11039 2.792741 -0 8.902595 -0 -4.717008 -13.74752 -2.267964 2.12179 -22.80682 -2.741687 -0 31.6756 -0 -3.777757 -5.937876 19.26461 1.675342 -3.839487 7.618334 0.214425 16.88932 -5.926463 2.001828 19.32446 0.9227441 -1.127357 -20.10037 4.940163 -3.569149 -31.72637 12.4064 89.84961 15.48391 -8.911915 -0 0 28.61958 -24.7288 17.94164 16.80817 1.596726 -21.55424 -7.069199 -94.03917 11.84759 36.10322 0 0 -9.167394 5.494772 14.91626 6.644931
-242.5445 100.8662 3080.557 -2.411909 -7.03658 -21.23815 4.406363 15.93929 2.646233 -0 10.11356 -0 -3.777829 -14.81443 -1.694126 2.27236 -24.54498 -2.792189 -0 23.94376 -0 -3.795 -6.370689 19.23597 1.652271 -3.815625 7.986365 0.2115469 16.56081 -5.670548 2.108165 19.0121 0.4431935 -1.617191 -20.00578 4.896459 -3.730353 -32.67649 12.17605 88.79725 15.61906 -6.974065 -0 0 31.00264 -24.36812 18.44225 17.23746 1.259123 -20.64828 -6.564842 -94.36585 11.60758 37.54674 0 0 -8.035816 5.012048 14.44865 7.270015
-244.0501 99.79798 3086.809 -2.021237 -6.405404 -21.72314 3.501865 18.03388 2.655226 -0 13.26497 -0 -2.843476 -14.05647 -1.170596 1.816237 -25.01913 -3.244118 -0 18.46739 -0 -3.707361 -6.668964 19.22071 1.579779 -3.786665 8.213904 0.2091754 16.23967 -5.444497 2.194284 18.87312 0.1180931 -1.93071 -19.84549 4.869279 -3.758046 -33.22425 12.01836 87.87491 15.69175 -5.468344 -0 0 32.67398 -24.12874 18.75975 17.53357 1.064155 -19.93919 -6.140185 -94.65039 11.51369 38.43855 0 0 -6.993055 4.734053 14.24439 7.584538
-245.5919 98.9804 3093.418 -1.660827 -6.024827 -22.03026 2.620796 19.22417 2.727964 -0 18.42282 -0 -2.154221 -11.54026 -0.7970595 0.8303374 -24.28515 -4.04155 -0 15.57986 -0 -3.494979 -6.88287 19.25039 1.47286 -3.752465 8.293163 0.2011027 15.97547 -5.260809 2.255947 18.90801 -0.03864835 -2.048427 -19.6339 4.852669 -3.648816 -33.36179 11.95179 87.16088 15.7128 -4.489287 -0 0 33.54737 -24.04478 18.88593 17.70443 1.011611 -19.46414 -5.838257 -94.91637 11.56851 38.80777 0 0 -6.034843 4.621063 14.30502 7.638084
-247.1637 98.6073 3100.301 -1.434677 -6.028597 -22.13807 1.855503 19.31654 2.761435 -0 25.39193 -0 -1.888083 -7.698204 -0.6655842 -0.5306837 -22.3638 -5.097471 -0 15.11202 -0 -3.176348 -7.107784 19.28854 1.34862 -3.713442 8.233393 0.1846515 15.79881 -5.129367 2.290615 19.0949 -0.03024961 -1.977378 -19.39843 4.844721 -3.425104 -33.12456 11.97461 86.70786 15.70232 -4.07435 -0 0 33.62445 -24.11348 18.82867 17.75615 1.089419 -19.2372 -5.6795 -95.16574 11.75462 38.71228 0 0 -5.19683 4.643492 14.59297 7.481845
-248.735 98.79774 3107.296 -1.383693 -6.449194 -22.01819 1.241443 18.10966 2.699074 -0 33.59344 -0 -2.064324 -3.24956 -0.8237277 -2.063847 -19.31924 -6.297251 -0 16.45596 -0 -2.789301 -7.472492 19.26315 1.221927 -3.669688 8.053763 0.1601556 15.71904 -5.055887 2.29726 19.40138 0.1298164 -1.741605 -19.17144 4.847842 -3.125185 -32.56957 12.07015 86.54255 15.68113 -4.214435 -0 0 32.96401 -24.30523 18.60223 17.69005 1.279568 -19.25424 -5.664007 -95.38145 12.04583 38.21327 0 0 -4.542973 4.786462 15.04984 7.156328
